<svg width="142" height="16" viewBox="0 0 142 16" fill="none" xmlns="http://www.w3.org/2000/svg">
<path d="M8 1.4412C10.136 1.4412 10.3888 1.4492 11.232 1.48758C12.0128 1.52356 12.436 1.6539 12.7184 1.76266C13.0912 1.90819 13.3584 2.08171 13.6384 2.36079C13.9184 2.64066 14.0912 2.90774 14.2368 3.28038C14.3456 3.56265 14.4768 3.98566 14.512 4.76531C14.5504 5.60893 14.5584 5.86082 14.5584 7.99667C14.5584 10.1317 14.5504 10.3844 14.512 11.2272C14.476 12.0077 14.3456 12.4307 14.2368 12.713C14.0912 13.0856 13.9176 13.3527 13.6384 13.6325C13.3584 13.9124 13.0912 14.0851 12.7184 14.2307C12.436 14.3402 12.0128 14.4706 11.2328 14.5058C10.3896 14.5441 10.1368 14.5521 8 14.5521C5.864 14.5521 5.6104 14.5441 4.768 14.5058C3.9872 14.4698 3.564 14.3402 3.2816 14.2307C2.93407 14.1025 2.61969 13.8981 2.3616 13.6325C2.09589 13.3746 1.89141 13.0603 1.7632 12.713C1.6536 12.4307 1.5232 12.0077 1.488 11.228C1.4496 10.3844 1.4416 10.1325 1.4416 7.99667C1.4416 5.86162 1.4496 5.60893 1.488 4.76611C1.524 3.98566 1.6536 3.56265 1.7632 3.28038C1.9088 2.90774 2.0824 2.64066 2.3616 2.36079C2.6416 2.08091 2.9088 1.90819 3.2816 1.76266C3.564 1.6539 3.9872 1.52276 4.7672 1.48758C5.6112 1.4492 5.8632 1.4412 8 1.4412ZM8 0.000244141C5.8272 0.000244141 5.5552 0.00983985 4.7016 0.0482227C3.8504 0.0882048 3.2688 0.222545 2.76 0.420056C2.226 0.620665 1.74222 0.935311 1.3424 1.34204C0.935485 1.74168 0.620699 2.22525 0.42 2.75901C0.2224 3.26758 0.0872 3.84892 0.048 4.69974C0.0088 5.55296 0 5.82484 0 7.99667C0 10.1685 0.0088 10.4404 0.048 11.2936C0.0872 12.1444 0.2224 12.7258 0.42 13.2343C0.620699 13.7681 0.935485 14.2516 1.3424 14.6513C1.74222 15.058 2.226 15.3727 2.76 15.5733C3.2688 15.7708 3.8504 15.9059 4.7016 15.9451C5.5552 15.9843 5.8272 15.9931 8 15.9931C10.1728 15.9931 10.4448 15.9843 11.2984 15.9451C12.1496 15.9059 12.7312 15.7708 13.24 15.5733C13.774 15.3727 14.2578 15.058 14.6576 14.6513C15.0645 14.2516 15.3793 13.7681 15.58 13.2343C15.7776 12.7258 15.9128 12.1444 15.952 11.2936C15.9904 10.4404 16 10.1685 16 7.99667C16 5.82484 15.9904 5.55296 15.952 4.69974C15.9128 3.84892 15.7776 3.26758 15.58 2.75901C15.3793 2.22525 15.0645 1.74168 14.6576 1.34204C14.2578 0.935311 13.774 0.620665 13.24 0.420056C12.7312 0.222545 12.1496 0.0874051 11.2984 0.0482227C10.4448 0.00983985 10.1728 0.000244141 8 0.000244141ZM8 3.8905C6.91049 3.8905 5.8656 4.32312 5.09521 5.09317C4.32481 5.86323 3.892 6.90764 3.892 7.99667C3.892 9.08569 4.32481 10.1301 5.09521 10.9002C5.8656 11.6702 6.91049 12.1028 8 12.1028C9.08951 12.1028 10.1344 11.6702 10.9048 10.9002C11.6752 10.1301 12.108 9.08569 12.108 7.99667C12.108 6.90764 11.6752 5.86323 10.9048 5.09317C10.1344 4.32312 9.08951 3.8905 8 3.8905ZM8 10.6619C7.29283 10.6619 6.61462 10.3811 6.11457 9.88125C5.61452 9.38143 5.3336 8.70352 5.3336 7.99667C5.3336 7.28981 5.61452 6.6119 6.11457 6.11208C6.61462 5.61226 7.29283 5.33146 8 5.33146C8.70717 5.33146 9.38538 5.61226 9.88543 6.11208C10.3855 6.6119 10.6664 7.28981 10.6664 7.99667C10.6664 8.70352 10.3855 9.38143 9.88543 9.88125C9.38538 10.3811 8.70717 10.6619 8 10.6619ZM13.2304 3.72818C13.2304 3.98267 13.1293 4.22674 12.9492 4.4067C12.7692 4.58665 12.525 4.68775 12.2704 4.68775C12.0158 4.68775 11.7716 4.58665 11.5916 4.4067C11.4115 4.22674 11.3104 3.98267 11.3104 3.72818C11.3104 3.47368 11.4115 3.22961 11.5916 3.04966C11.7716 2.8697 12.0158 2.76861 12.2704 2.76861C12.525 2.76861 12.7692 2.8697 12.9492 3.04966C13.1293 3.22961 13.2304 3.47368 13.2304 3.72818Z" fill="#040062"/>
<path d="M51.193 15.993V8.69825H53.551L53.904 5.85453H51.193V4.03934C51.193 3.21671 51.413 2.65596 52.55 2.65596L54 2.65496V0.112094C53.2984 0.034745 52.5929 -0.0026321 51.887 0.000143953C49.796 0.000143953 48.365 1.32555 48.365 3.75846V5.85453H46V8.69825H48.365V15.993H51.193Z" fill="#040062"/>
<path d="M141.097 9.86878V15.5356H138.054V10.2482C138.054 8.91987 137.614 8.01361 136.514 8.01361C135.673 8.01361 135.172 8.62489 134.953 9.21574C134.872 9.4272 134.852 9.72129 134.852 10.0163V15.5356H131.809C131.809 15.5356 131.85 6.58047 131.809 5.65289H134.852V7.05404L134.831 7.08602H134.852V7.05404C135.256 6.38145 135.978 5.42099 137.594 5.42099C139.596 5.42099 141.097 6.8328 141.097 9.86878ZM128.626 0.888794C127.584 0.888794 126.903 1.62624 126.903 2.59559C126.903 3.54449 127.564 4.31482 128.585 4.31482H128.605C129.667 4.31482 130.326 3.54449 130.326 2.59559C130.307 1.62624 129.667 0.888794 128.626 0.888794ZM127.084 15.5356H130.126V5.65289H127.084V15.5356Z" fill="#040062"/>
<path d="M100.5 2.65602C99.8642 2.94133 99.1889 3.12903 98.497 3.21277C99.2278 2.76793 99.7725 2.07328 100.03 1.25764C99.356 1.66246 98.61 1.95733 97.816 2.11526C97.4917 1.76366 97.098 1.48302 96.6599 1.29103C96.2217 1.09904 95.7484 0.999866 95.27 0.999756C93.344 0.999756 91.782 2.58105 91.782 4.53218C91.782 4.80905 91.813 5.07893 91.872 5.33782C88.974 5.18988 86.404 3.78351 84.683 1.64647C84.3726 2.18694 84.2098 2.79948 84.211 3.42267C84.211 4.64812 84.827 5.72964 85.763 6.36236C85.2083 6.34501 84.6662 6.19341 84.183 5.92055V5.96553C84.183 7.67677 85.385 9.10513 86.98 9.42898C86.4669 9.57124 85.9276 9.59212 85.405 9.48996C85.849 10.8933 87.137 11.9149 88.664 11.9429C87.9435 12.5172 87.1159 12.9424 86.2292 13.1937C85.3426 13.4449 84.4148 13.5172 83.5 13.4062C85.0901 14.4428 86.9476 14.9943 88.846 14.9935C95.262 14.9935 98.77 9.6099 98.77 4.94199C98.77 4.78906 98.766 4.63613 98.76 4.4852C99.4438 3.98328 100.033 3.36393 100.5 2.65602Z" fill="#040062"/>
</svg>
